<svg width="360" height="260" viewBox="0 0 360 260" fill="none" xmlns="http://www.w3.org/2000/svg">
  <defs>
    <linearGradient id="services_bg" x1="20" y1="30" x2="340" y2="230" gradientUnits="userSpaceOnUse">
      <stop stop-color="#0f172a" />
      <stop offset="0.55" stop-color="#0f766e" />
      <stop offset="1" stop-color="#14b8a6" />
    </linearGradient>
    <linearGradient id="services_truck" x1="64" y1="88" x2="252" y2="196" gradientUnits="userSpaceOnUse">
      <stop stop-color="#22d3ee" />
      <stop offset="1" stop-color="#0ea5e9" />
    </linearGradient>
    <linearGradient id="services_cab" x1="156" y1="96" x2="260" y2="188" gradientUnits="userSpaceOnUse">
      <stop stop-color="#f97316" />
      <stop offset="1" stop-color="#facc15" />
    </linearGradient>
    <linearGradient id="services_uniform" x1="224" y1="112" x2="300" y2="214" gradientUnits="userSpaceOnUse">
      <stop stop-color="#1e3a8a" />
      <stop offset="1" stop-color="#3b82f6" />
    </linearGradient>
    <filter id="services_shadow" x="0" y="0" width="360" height="260" filterUnits="userSpaceOnUse" color-interpolation-filters="sRGB">
      <feDropShadow dx="0" dy="16" stdDeviation="20" flood-opacity="0.26" flood-color="#0f172a" />
    </filter>
  </defs>
  <rect x="16" y="20" width="328" height="220" rx="30" fill="url(#services_bg)" filter="url(#services_shadow)" />
  <g opacity="0.32">
    <circle cx="84" cy="70" r="32" fill="#f97316" />
    <circle cx="268" cy="66" r="28" fill="#facc15" />
    <circle cx="284" cy="184" r="36" fill="#22d3ee" />
  </g>
  <g transform="translate(56 86)">
    <rect x="8" y="88" width="244" height="24" rx="12" fill="#0f172a" fill-opacity="0.45" />
    <rect x="0" y="12" width="168" height="72" rx="16" fill="url(#services_truck)" />
    <rect x="144" y="24" width="76" height="60" rx="16" fill="url(#services_cab)" />
    <path d="M216 40h34c9.6 0 18 6 21.2 14.9L284 82h-68V40z" fill="#0f172a" fill-opacity="0.72" />
    <rect x="166" y="36" width="30" height="22" rx="6" fill="#f8fafc" />
    <path d="M30 64h34l14-20h72" stroke="#0f172a" stroke-width="8" stroke-linecap="round" stroke-linejoin="round" stroke-opacity="0.55" />
    <circle cx="60" cy="92" r="18" fill="#0f172a" />
    <circle cx="60" cy="92" r="10" fill="#f8fafc" />
    <circle cx="134" cy="92" r="18" fill="#0f172a" />
    <circle cx="134" cy="92" r="10" fill="#f8fafc" />
    <circle cx="212" cy="92" r="18" fill="#0f172a" />
    <circle cx="212" cy="92" r="10" fill="#f8fafc" />
  </g>
  <g transform="translate(226 96)">
    <path d="M28 30c0-10.5 8.5-19 19-19s19 8.5 19 19-8.5 19-19 19-19-8.5-19-19z" fill="#f8fafc" fill-opacity="0.9" />
    <path d="M24 72c0-12.7 10.3-23 23-23h12c12.7 0 23 10.3 23 23v40H24V72z" fill="url(#services_uniform)" />
    <path d="M38 82h18l9 38H29l9-38z" fill="#0f172a" fill-opacity="0.75" />
    <rect x="62" y="62" width="38" height="12" rx="6" transform="rotate(18 62 62)" fill="#f97316" />
    <path d="M16 62l-14 26" stroke="#f8fafc" stroke-width="6" stroke-linecap="round" stroke-opacity="0.55" />
    <path d="M70 108l28 18" stroke="#facc15" stroke-width="6" stroke-linecap="round" stroke-opacity="0.65" />
    <path d="M38 40l18-6 6-12" stroke="#f8fafc" stroke-width="6" stroke-linecap="round" stroke-linejoin="round" stroke-opacity="0.5" />
  </g>
  <g transform="translate(32 44)" stroke="#f8fafc" stroke-linecap="round" stroke-linejoin="round" stroke-opacity="0.55">
    <path d="M28 56l24-24" stroke-width="8" />
    <path d="M46 48l18 18" stroke-width="8" />
    <path d="M300 136l18-18" stroke-width="10" />
    <path d="M294 110l18-18" stroke-width="10" />
    <path d="M286 150l22 22" stroke-width="10" />
  </g>
</svg>
