<svg width="360" height="260" viewBox="0 0 360 260" fill="none" xmlns="http://www.w3.org/2000/svg">
  <defs>
    <linearGradient id="contact_bg" x1="26" y1="26" x2="332" y2="232" gradientUnits="userSpaceOnUse">
      <stop stop-color="#0f172a" />
      <stop offset="0.5" stop-color="#1d4ed8" />
      <stop offset="1" stop-color="#6366f1" />
    </linearGradient>
    <linearGradient id="contact_screen" x1="118" y1="92" x2="256" y2="200" gradientUnits="userSpaceOnUse">
      <stop stop-color="#22d3ee" />
      <stop offset="1" stop-color="#38bdf8" />
    </linearGradient>
    <linearGradient id="contact_truck" x1="96" y1="114" x2="234" y2="210" gradientUnits="userSpaceOnUse">
      <stop stop-color="#0ea5e9" />
      <stop offset="1" stop-color="#22d3ee" />
    </linearGradient>
    <linearGradient id="contact_cab" x1="168" y1="126" x2="246" y2="210" gradientUnits="userSpaceOnUse">
      <stop stop-color="#f97316" />
      <stop offset="1" stop-color="#facc15" />
    </linearGradient>
    <linearGradient id="contact_rep" x1="224" y1="110" x2="300" y2="210" gradientUnits="userSpaceOnUse">
      <stop stop-color="#1e3a8a" />
      <stop offset="1" stop-color="#3b82f6" />
    </linearGradient>
    <filter id="contact_shadow" x="0" y="0" width="360" height="260" filterUnits="userSpaceOnUse" color-interpolation-filters="sRGB">
      <feDropShadow dx="0" dy="14" stdDeviation="20" flood-opacity="0.26" flood-color="#0f172a" />
    </filter>
  </defs>
  <rect x="18" y="18" width="324" height="224" rx="30" fill="url(#contact_bg)" filter="url(#contact_shadow)" />
  <g opacity="0.32">
    <circle cx="84" cy="64" r="28" fill="#f97316" />
    <circle cx="270" cy="62" r="24" fill="#38bdf8" />
    <circle cx="286" cy="186" r="34" fill="#22d3ee" />
  </g>
  <g transform="translate(70 70)">
    <rect x="24" y="20" width="196" height="132" rx="28" fill="#0f172a" fill-opacity="0.55" />
    <rect x="44" y="42" width="156" height="100" rx="22" fill="#0f172a" fill-opacity="0.65" />
    <rect x="60" y="58" width="124" height="72" rx="18" fill="url(#contact_screen)" />
    <rect x="68" y="86" width="102" height="40" rx="14" fill="url(#contact_truck)" />
    <rect x="148" y="94" width="54" height="34" rx="12" fill="url(#contact_cab)" />
    <rect x="160" y="100" width="24" height="16" rx="6" fill="#f8fafc" />
    <path d="M84 112h26l12-18h50" stroke="#0f172a" stroke-width="6" stroke-linecap="round" stroke-linejoin="round" stroke-opacity="0.55" />
    <circle cx="102" cy="128" r="14" fill="#0f172a" />
    <circle cx="102" cy="128" r="8" fill="#f8fafc" />
    <circle cx="150" cy="128" r="14" fill="#0f172a" />
    <circle cx="150" cy="128" r="8" fill="#f8fafc" />
    <path d="M86 74h96" stroke="#f8fafc" stroke-width="4" stroke-linecap="round" stroke-opacity="0.45" />
    <path d="M90 138h88" stroke="#22d3ee" stroke-width="6" stroke-linecap="round" stroke-opacity="0.4" />
    <path d="M62 166h120" stroke="#f8fafc" stroke-width="8" stroke-linecap="round" stroke-opacity="0.2" />
  </g>
  <g transform="translate(226 88)">
    <path d="M30 30c0-10.5 8.5-19 19-19s19 8.5 19 19-8.5 19-19 19-19-8.5-19-19z" fill="#f8fafc" fill-opacity="0.92" />
    <path d="M26 74c0-12.7 10.3-23 23-23h12c12.7 0 23 10.3 23 23v38H26V74z" fill="url(#contact_rep)" />
    <path d="M42 82h16l8 36H34l8-36z" fill="#0f172a" fill-opacity="0.75" />
    <rect x="62" y="60" width="34" height="12" rx="6" transform="rotate(16 62 60)" fill="#f97316" />
    <path d="M22 60l-18 22" stroke="#f8fafc" stroke-width="6" stroke-linecap="round" stroke-opacity="0.55" />
    <path d="M70 110l24 18" stroke="#facc15" stroke-width="6" stroke-linecap="round" stroke-opacity="0.65" />
    <path d="M38 40h18l10-10" stroke="#f8fafc" stroke-width="6" stroke-linecap="round" stroke-linejoin="round" stroke-opacity="0.5" />
  </g>
  <g transform="translate(236 52)">
    <rect x="6" y="6" width="56" height="56" rx="14" fill="#f97316" fill-opacity="0.85" />
    <path d="M32 24l12 14-12 14" stroke="#f8fafc" stroke-width="6" stroke-linecap="round" stroke-linejoin="round" />
  </g>
</svg>
